# xmcd
# 
# Track frame offsets:
#     150
#     16735
#     32374
#     49809
#     67750
#     81545
#     98951
#     116281
#     135848
#     156583
#     172582
#     189492
# 
# Disc length: 2745
# 
# Revision: 2
# Processed by: cddbd v1.5.2PL0 Copyright (c) Steve Scherf et al.
# Submitted via: fre:ac v1.1beta1pre5
# 
DISCID=870ab70c
DTITLE=Rapülők - Riszájkling
DYEAR=2006
DGENRE=rap
TTITLE0=Mi kéne ha volna
TTITLE1=Zúg a Volga
TTITLE2=Jó reggelt!
TTITLE3=Piti wumen
TTITLE4=Lapát
TTITLE5=Áj lav jú
TTITLE6=Helyi terminátor
TTITLE7=Némber one
TTITLE8=Tíz év vagy száz
TTITLE9=Lesz még rosszabb
TTITLE10=Kék rapszódia
TTITLE11=Túr dö flanc
EXTD=zippp....
EXTT0=
EXTT1=
EXTT2=
EXTT3=
EXTT4=
EXTT5=
EXTT6=
EXTT7=
EXTT8=
EXTT9=
EXTT10=
EXTT11=
PLAYORDER=
